<?plantuml 1.2026.2?><svg xmlns="http://www.w3.org/2000/svg" xmlns:xlink="http://www.w3.org/1999/xlink" contentStyleType="text/css" data-diagram-type="SEQUENCE" height="1108px" preserveAspectRatio="none" style="width:795px;height:1108px;background:#FFFFFF;" version="1.1" viewBox="0 0 795 1108" width="795px" zoomAndPan="magnify"><title>FAPI2 Singpass Login</title><defs/><g><text fill="#000000" font-family="sans-serif" font-size="14" font-weight="bold" lengthAdjust="spacing" textLength="169.6885" x="314.4844" y="27.9951">FAPI2 Singpass Login</text><rect fill="none" height="327.2578" style="stroke:#000000;stroke-width:1.5;" width="696.6572" x="93" y="434.75"/><g class="participant-lifeline" data-entity-uid="part1" data-qualified-name="app" id="part1-lifeline"><g><title>RP Mobile App</title><rect fill="#000000" fill-opacity="0.00000" height="966.7109" width="8" x="156.1724" y="89.8906"/><line style="stroke:#181818;stroke-width:0.5;stroke-dasharray:5,5;" x1="160" x2="160" y1="89.8906" y2="1056.6016"/></g></g><g class="participant-lifeline" data-entity-uid="part2" data-qualified-name="rp" id="part2-lifeline"><g><title>RP Backend</title><rect fill="#000000" fill-opacity="0.00000" height="966.7109" width="8" x="424.1953" y="89.8906"/><line style="stroke:#181818;stroke-width:0.5;stroke-dasharray:5,5;" x1="427.7046" x2="427.7046" y1="89.8906" y2="1056.6016"/></g></g><g class="participant-lifeline" data-entity-uid="part3" data-qualified-name="sp" id="part3-lifeline"><g><title>Singpass</title><rect fill="#000000" fill-opacity="0.00000" height="966.7109" width="8" x="694.4146" y="89.8906"/><line style="stroke:#181818;stroke-width:0.5;stroke-dasharray:5,5;" x1="698.3184" x2="698.3184" y1="89.8906" y2="1056.6016"/></g></g><g class="participant participant-head" data-entity-uid="part1" data-qualified-name="app" id="part1-head"><rect fill="#E2E2F0" height="30.2969" rx="2.5" ry="2.5" style="stroke:#181818;stroke-width:0.5;" width="114.3447" x="103" y="58.5938"/><text fill="#000000" font-family="sans-serif" font-size="14" lengthAdjust="spacing" textLength="100.3447" x="110" y="78.5889">RP Mobile App</text></g><g class="participant participant-tail" data-entity-uid="part1" data-qualified-name="app" id="part1-tail"><rect fill="#E2E2F0" height="30.2969" rx="2.5" ry="2.5" style="stroke:#181818;stroke-width:0.5;" width="114.3447" x="103" y="1055.6016"/><text fill="#000000" font-family="sans-serif" font-size="14" lengthAdjust="spacing" textLength="100.3447" x="110" y="1075.5967">RP Mobile App</text></g><g class="participant participant-head" data-entity-uid="part2" data-qualified-name="rp" id="part2-head"><rect fill="#E2E2F0" height="30.2969" rx="2.5" ry="2.5" style="stroke:#181818;stroke-width:0.5;" width="96.9814" x="379.7046" y="58.5938"/><text fill="#000000" font-family="sans-serif" font-size="14" lengthAdjust="spacing" textLength="82.9814" x="386.7046" y="78.5889">RP Backend</text></g><g class="participant participant-tail" data-entity-uid="part2" data-qualified-name="rp" id="part2-tail"><rect fill="#E2E2F0" height="30.2969" rx="2.5" ry="2.5" style="stroke:#181818;stroke-width:0.5;" width="96.9814" x="379.7046" y="1055.6016"/><text fill="#000000" font-family="sans-serif" font-size="14" lengthAdjust="spacing" textLength="82.9814" x="386.7046" y="1075.5967">RP Backend</text></g><g class="participant participant-head" data-entity-uid="part3" data-qualified-name="sp" id="part3-head"><rect fill="#E2E2F0" height="46.5938" rx="2.5" ry="2.5" style="stroke:#181818;stroke-width:0.5;" width="108.1924" x="644.3184" y="42.2969"/><text fill="#000000" font-family="sans-serif" font-size="14" lengthAdjust="spacing" textLength="62.5898" x="667.1196" y="62.292">Singpass</text><text fill="#000000" font-family="sans-serif" font-size="14" lengthAdjust="spacing" textLength="94.1924" x="651.3184" y="78.5889">OAuth Server</text></g><g class="participant participant-tail" data-entity-uid="part3" data-qualified-name="sp" id="part3-tail"><rect fill="#E2E2F0" height="46.5938" rx="2.5" ry="2.5" style="stroke:#181818;stroke-width:0.5;" width="108.1924" x="644.3184" y="1055.6016"/><text fill="#000000" font-family="sans-serif" font-size="14" lengthAdjust="spacing" textLength="62.5898" x="667.1196" y="1075.5967">Singpass</text><text fill="#000000" font-family="sans-serif" font-size="14" lengthAdjust="spacing" textLength="94.1924" x="651.3184" y="1091.8936">OAuth Server</text></g><path d="M5,104.8906 L5,144.8906 L155,144.8906 L155,114.8906 L145,104.8906 L5,104.8906" fill="#FEFFDD" style="stroke:#181818;stroke-width:0.5;"/><path d="M145,104.8906 L145,114.8906 L155,114.8906 L145,104.8906" fill="#FEFFDD" style="stroke:#181818;stroke-width:0.5;"/><text fill="#000000" font-family="sans-serif" font-size="13" lengthAdjust="spacing" textLength="89.9082" x="11" y="121.9575">User clicks on</text><text fill="#000000" font-family="sans-serif" font-size="13" lengthAdjust="spacing" textLength="129.2637" x="11" y="137.0903">Login with Singpass</text><g class="message" data-entity-1="part1" data-entity-2="part2" id="msg1"><polygon fill="#181818" points="416.1953,167.2891,426.1953,171.2891,416.1953,175.2891,420.1953,171.2891" style="stroke:#181818;stroke-width:1;"/><line style="stroke:#181818;stroke-width:1;" x1="160.1724" x2="422.1953" y1="171.2891" y2="171.2891"/><text fill="#000000" font-family="sans-serif" font-size="13" lengthAdjust="spacing" textLength="244.0229" x="167.1724" y="166.2231">1a) Request for request_uri and state</text></g><path d="M309,184.2891 L309,254.2891 L546,254.2891 L546,194.2891 L536,184.2891 L309,184.2891" fill="#FEFFDD" style="stroke:#181818;stroke-width:0.5;"/><path d="M536,184.2891 L536,194.2891 L546,194.2891 L536,184.2891" fill="#FEFFDD" style="stroke:#181818;stroke-width:0.5;"/><text fill="#000000" font-family="sans-serif" font-size="13" lengthAdjust="spacing" textLength="190.7979" x="315" y="201.356">Generate PKCE code_verifier,</text><text fill="#000000" font-family="sans-serif" font-size="13" lengthAdjust="spacing" textLength="148.7573" x="315" y="216.4888">code_challenge, nonce</text><text fill="#000000" font-family="sans-serif" font-size="13" lengthAdjust="spacing" textLength="207.9873" x="315" y="231.6216">Create ephemeral DPoP keypair</text><text fill="#000000" font-family="sans-serif" font-size="13" lengthAdjust="spacing" textLength="216.8613" x="315" y="246.7544">and DPoP token for PAR endpoint</text><g class="message" data-entity-1="part2" data-entity-2="part3" id="msg2"><polygon fill="#181818" points="686.4146,307.2188,696.4146,311.2188,686.4146,315.2188,690.4146,311.2188" style="stroke:#181818;stroke-width:1;"/><line style="stroke:#181818;stroke-width:1;" x1="428.1953" x2="692.4146" y1="311.2188" y2="311.2188"/><text fill="#000000" font-family="sans-serif" font-size="13" lengthAdjust="spacing" textLength="246.2192" x="435.1953" y="275.8872">1b) PAR request with code_challenge,</text><text fill="#000000" font-family="sans-serif" font-size="13" lengthAdjust="spacing" textLength="146.8911" x="435.1953" y="291.02">nonce and DPoP token</text><text fill="#000000" font-family="sans-serif" font-size="13" lengthAdjust="spacing" textLength="97.6841" x="435.1953" y="306.1528">(PAR endpoint)</text></g><g class="message" data-entity-1="part3" data-entity-2="part2" id="msg3"><polygon fill="#181818" points="439.1953,336.3516,429.1953,340.3516,439.1953,344.3516,435.1953,340.3516" style="stroke:#181818;stroke-width:1;"/><line style="stroke:#181818;stroke-width:1;" x1="433.1953" x2="697.4146" y1="340.3516" y2="340.3516"/><text fill="#000000" font-family="sans-serif" font-size="13" lengthAdjust="spacing" textLength="196.7646" x="445.1953" y="335.2856">1c) request_uri and expires_in</text></g><path d="M343,353.3516 L343,393.3516 L511,393.3516 L511,363.3516 L501,353.3516 L343,353.3516" fill="#FEFFDD" style="stroke:#181818;stroke-width:0.5;"/><path d="M501,353.3516 L501,363.3516 L511,363.3516 L501,353.3516" fill="#FEFFDD" style="stroke:#181818;stroke-width:0.5;"/><text fill="#000000" font-family="sans-serif" font-size="13" lengthAdjust="spacing" textLength="147.5894" x="349" y="370.4185">Persist PKCE and DPoP</text><text fill="#000000" font-family="sans-serif" font-size="13" lengthAdjust="spacing" textLength="136.0176" x="349" y="385.5513">data to session store</text><g class="message" data-entity-1="part2" data-entity-2="part1" id="msg4"><polygon fill="#181818" points="171.1724,415.75,161.1724,419.75,171.1724,423.75,167.1724,419.75" style="stroke:#181818;stroke-width:1;"/><line style="stroke:#181818;stroke-width:1;" x1="165.1724" x2="427.1953" y1="419.75" y2="419.75"/><text fill="#000000" font-family="sans-serif" font-size="13" lengthAdjust="spacing" textLength="164.7788" x="177.1724" y="414.6841">1d) request_uri and state</text></g><path d="M93,434.75 L542.0981,434.75 L542.0981,441.8828 L532.0981,451.8828 L93,451.8828 L93,434.75" fill="#EEEEEE" style="stroke:#000000;stroke-width:1.5;"/><rect fill="none" height="327.2578" style="stroke:#000000;stroke-width:1.5;" width="696.6572" x="93" y="434.75"/><text fill="#000000" font-family="sans-serif" font-size="13" font-weight="bold" lengthAdjust="spacing" textLength="404.0981" x="108" y="447.8169">ASWebAuthenticationSession (AuthenticationServices)</text><g class="message" data-entity-1="part1" data-entity-2="part3" id="msg5"><polygon fill="#181818" points="686.4146,484.1484,696.4146,488.1484,686.4146,492.1484,690.4146,488.1484" style="stroke:#181818;stroke-width:1;"/><line style="stroke:#181818;stroke-width:1;" x1="160.1724" x2="692.4146" y1="488.1484" y2="488.1484"/><text fill="#000000" font-family="sans-serif" font-size="13" lengthAdjust="spacing" textLength="399.1787" x="167.1724" y="467.9497">2a) Open authorization URL via ASWebAuthenticationSession</text><text fill="#000000" font-family="sans-serif" font-size="13" lengthAdjust="spacing" textLength="191.9023" x="167.1724" y="483.0825">with client_id and request_uri</text></g><path d="M650,501.1484 L650,541.1484 L745,541.1484 L745,511.1484 L735,501.1484 L650,501.1484" fill="#FEFFDD" style="stroke:#181818;stroke-width:0.5;"/><path d="M735,501.1484 L735,511.1484 L745,511.1484 L735,501.1484" fill="#FEFFDD" style="stroke:#181818;stroke-width:0.5;"/><text fill="#000000" font-family="sans-serif" font-size="13" lengthAdjust="spacing" textLength="64.7397" x="656" y="518.2153">User does</text><text fill="#000000" font-family="sans-serif" font-size="13" lengthAdjust="spacing" textLength="74.3501" x="656" y="533.3481">1fa and 2fa</text><path d="M616,551.4141 L616,621.4141 L779,621.4141 L779,561.4141 L769,551.4141 L616,551.4141" fill="#FEFFDD" style="stroke:#181818;stroke-width:0.5;"/><path d="M769,551.4141 L769,561.4141 L779,561.4141 L769,551.4141" fill="#FEFFDD" style="stroke:#181818;stroke-width:0.5;"/><text fill="#000000" font-family="sans-serif" font-size="13" lengthAdjust="spacing" textLength="136.9189" x="622" y="568.481">User clicks on button</text><text fill="#000000" font-family="sans-serif" font-size="13" lengthAdjust="spacing" textLength="122.605" x="622" y="583.6138">in redirect/consent</text><text fill="#000000" font-family="sans-serif" font-size="13" lengthAdjust="spacing" textLength="142.6572" x="622" y="598.7466">page or automatically</text><text fill="#000000" font-family="sans-serif" font-size="13" lengthAdjust="spacing" textLength="99.2964" x="622" y="613.8794">gets redirected</text><g class="message" data-entity-1="part3" data-entity-2="part1" id="msg6"><polygon fill="#181818" points="171.1724,750.0078,161.1724,754.0078,171.1724,758.0078,167.1724,754.0078" style="stroke:#181818;stroke-width:1;"/><line style="stroke:#181818;stroke-width:1;" x1="165.1724" x2="697.4146" y1="754.0078" y2="754.0078"/><text fill="#000000" font-family="sans-serif" font-size="13" lengthAdjust="spacing" textLength="270.7212" x="177.1724" y="643.0122">2b) Returns Authorization Code and state</text><text fill="#000000" font-family="sans-serif" font-size="13" lengthAdjust="spacing" textLength="4.1323" x="177.1724" y="658.145">&#160;</text><text fill="#000000" font-family="sans-serif" font-size="13" lengthAdjust="spacing" textLength="289.2627" x="177.1724" y="673.2778">iOS 17.4+: via ASWebAuthenticationSession</text><text fill="#000000" font-family="sans-serif" font-size="13" lengthAdjust="spacing" textLength="227.5" x="177.1724" y="688.4106">HTTPS callback (.https(host:path:))</text><text fill="#000000" font-family="sans-serif" font-size="13" lengthAdjust="spacing" textLength="4.1323" x="177.1724" y="703.5435">&#160;</text><text fill="#000000" font-family="sans-serif" font-size="13" lengthAdjust="spacing" textLength="208.6475" x="177.1724" y="718.6763">iOS &lt; 17.4: via Universal Link &#8594;</text><text fill="#000000" font-family="sans-serif" font-size="13" lengthAdjust="spacing" textLength="239.1733" x="177.1724" y="733.8091">AppDelegate &#8594; WebSessionManager</text><text fill="#000000" font-family="sans-serif" font-size="13" lengthAdjust="spacing" textLength="149.3286" x="177.1724" y="748.9419">&#8594; authSessionCallback</text></g><g class="message" data-entity-1="part1" data-entity-2="part2" id="msg7"><polygon fill="#181818" points="416.1953,801.2734,426.1953,805.2734,416.1953,809.2734,420.1953,805.2734" style="stroke:#181818;stroke-width:1;"/><line style="stroke:#181818;stroke-width:1;" x1="160.1724" x2="422.1953" y1="805.2734" y2="805.2734"/><text fill="#000000" font-family="sans-serif" font-size="13" lengthAdjust="spacing" textLength="195.7744" x="167.1724" y="785.0747">3a) Sends Authorization code,</text><text fill="#000000" font-family="sans-serif" font-size="13" lengthAdjust="spacing" textLength="134.9194" x="167.1724" y="800.2075">state and redirectUri</text></g><path d="M294,818.2734 L294,858.2734 L561,858.2734 L561,828.2734 L551,818.2734 L294,818.2734" fill="#FEFFDD" style="stroke:#181818;stroke-width:0.5;"/><path d="M551,818.2734 L551,828.2734 L561,828.2734 L551,818.2734" fill="#FEFFDD" style="stroke:#181818;stroke-width:0.5;"/><text fill="#000000" font-family="sans-serif" font-size="13" lengthAdjust="spacing" textLength="188.4873" x="300" y="835.3403">Retrieve stored code_verifier</text><text fill="#000000" font-family="sans-serif" font-size="13" lengthAdjust="spacing" textLength="246.9365" x="300" y="850.4731">Create DPoP token for token endpoint</text><g class="message" data-entity-1="part2" data-entity-2="part3" id="msg8"><polygon fill="#181818" points="686.4146,910.9375,696.4146,914.9375,686.4146,918.9375,690.4146,914.9375" style="stroke:#181818;stroke-width:1;"/><line style="stroke:#181818;stroke-width:1;" x1="428.1953" x2="692.4146" y1="914.9375" y2="914.9375"/><text fill="#000000" font-family="sans-serif" font-size="13" lengthAdjust="spacing" textLength="173.7861" x="435.1953" y="879.606">3b) Request for token with</text><text fill="#000000" font-family="sans-serif" font-size="13" lengthAdjust="spacing" textLength="191.3438" x="435.1953" y="894.7388">code_verifier and DPoP token</text><text fill="#000000" font-family="sans-serif" font-size="13" lengthAdjust="spacing" textLength="108.7354" x="435.1953" y="909.8716">(token endpoint)</text></g><g class="message" data-entity-1="part3" data-entity-2="part2" id="msg9"><polygon fill="#181818" points="439.1953,940.0703,429.1953,944.0703,439.1953,948.0703,435.1953,944.0703" style="stroke:#181818;stroke-width:1;"/><line style="stroke:#181818;stroke-width:1;" x1="433.1953" x2="697.4146" y1="944.0703" y2="944.0703"/><text fill="#000000" font-family="sans-serif" font-size="13" lengthAdjust="spacing" textLength="171.7104" x="445.1953" y="939.0044">3c) Responds with token/s</text></g><path d="M351,957.0703 L351,997.0703 L504,997.0703 L504,967.0703 L494,957.0703 L351,957.0703" fill="#FEFFDD" style="stroke:#181818;stroke-width:0.5;"/><path d="M494,957.0703 L494,967.0703 L504,967.0703 L494,957.0703" fill="#FEFFDD" style="stroke:#181818;stroke-width:0.5;"/><text fill="#000000" font-family="sans-serif" font-size="13" lengthAdjust="spacing" textLength="129.708" x="357" y="974.1372">Validate tokens and</text><text fill="#000000" font-family="sans-serif" font-size="13" lengthAdjust="spacing" textLength="132.5645" x="357" y="989.27">extract user identity</text><g class="message" data-entity-1="part2" data-entity-2="part1" id="msg10"><polygon fill="#181818" points="171.1724,1034.6016,161.1724,1038.6016,171.1724,1042.6016,167.1724,1038.6016" style="stroke:#181818;stroke-width:1;"/><line style="stroke:#181818;stroke-width:1;" x1="165.1724" x2="427.1953" y1="1038.6016" y2="1038.6016"/><text fill="#000000" font-family="sans-serif" font-size="13" lengthAdjust="spacing" textLength="145.2915" x="177.1724" y="1018.4028">3d) Respond with RP's</text><text fill="#000000" font-family="sans-serif" font-size="13" lengthAdjust="spacing" textLength="139.915" x="177.1724" y="1033.5356">session token or data</text></g><?plantuml-src XLJRRjim37ttLn1zMOnrBP8C610C0x9qDwn5ZRZPNWm4iiqaGbnAa-IitGVi0_Q9-v9Hift5oIvl3acTGnuUnabN8RoT9Xz6a4fQQs4jNAkrf2ZImZXPI2t8mTayWHkLIowUQdq6meBG-gJajIYsI6N8cwDq1v_HxRHs6qZHxD24KgkZY9H3g73bGAqyzWGM5WqKbIos5XHb5Dg2hzA_RR6YY2kVlJ9SFHGnpF5BZTR1IXampVUoDX84bM2TSDZIA2O6_-WT4XgEG_9nzWOALUAIKt8bqPnd57uN6r5LI6iy1r9KO4OpW_u9wWtUy-iAhXALm1OVjP0c8qyM8awn5g6NP3e7baKhIIwA37TiVSTv739jfyraHvmP1LBeWsOqE8ICeyXsAXJnoUJueAL1k_GxxO-VeB6IcSFq7KL6fN22YS2YjL8HIwSCDds7nGpB-6_ohesgDKpJpvZx9IFn_eLZaBJ56Xo7pKuMQEDcaLwM4I_oLhDoWYkLaTz28Ipcrx2JuX_O6JKALf9JIrc6lWxwF9pUTlug5R8ZXoiHgaShySUglGiXhvtpLEn4WoNhMhZBGf5boeoqMFDBupjNzyAtLrMF6U_HsNqrbissWfAZt9lMrOOiJ7lZpjW7luNDFEDj2iCN5y-VJlwhm_kxkoG5pvxpGSBWOkESjeEDicwYXTjCuhX3V1am6yW5IPxQigEl9MtXv_SV6V6rNs65Q-zu3W2JjZGtWdXSDhmF-rsryLbB6x4z3-vpp6jDENGyg3SyspoCsMwi4MhHtvZ7OAcCn1qsZYpx1xi_pAFZQxvEps-Sz_ymcZfleVRoE-3Ju-j37fpVkF2OLYi_Pt1ZABsqnvDy4fKiVRCXRpr5HlZWZ2WSrDvoilIBTOy7TpSkz-WD-3nvmkRjphJfYYVnz_iB?></g></svg>